#!OML:ASF H:\Male1\Project 1\Capture day 1\Session 1\Male1.ASF
:FULLY-SPECIFIED
:DEGREES
371
root 10.3592 15.3487 8.78546 -2.9439 -183.089 -0.431153
lowerback 7.56582 1.32234 -0.709793
upperback 3.80648 2.00818 -1.17822
thorax -0.29093 1.13583 -0.967533
lowerneck -2.57527 6.16162 10.2513
upperneck -4.74572 7.66153 -9.22789
head -0.216797 3.6699 -4.32847
rclavicle -1.30204e-014 1.98785e-015
rhumerus -37.9224 -11.6785 -80.9001
rradius 28.6062
rwrist -16.3816
rhand -27.6687 2.61263
rfingers 7.12502
rthumb -1.06595 -27.3645
lclavicle -1.30204e-014 1.98785e-015
lhumerus -36.6724 -6.92911 83.8562
lradius 37.6727
lwrist 3.48494
lhand -18.9156 11.2998
lfingers 7.12502
lthumb 7.38665 41.1509
rfemur -4.83386 15.4691 25.9725
rtibia 26.6739
rfoot -28.0082 -28.6073
rtoes -16.7947
lfemur -5.87717 -13.5888 -21.9479
ltibia 27.9962
lfoot -19.6184 22.0194
ltoes -15.3713
372
root 10.3617 15.349 8.77549 -2.82777 -183.148 -0.334949
lowerback 7.40651 1.35266 -0.490495
upperback 3.805 2.06188 -1.24836
thorax -0.194095 1.16509 -1.16132
lowerneck -2.59771 6.15724 10.3169
upperneck -4.69905 7.65886 -9.14836
head -0.201133 3.66797 -4.3133
rclavicle -3.0265e-014 -7.95139e-016
rhumerus -37.9422 -12.05 -80.9187
rradius 28.5426
rwrist -15.9952
rhand -27.767 2.53837
rfingers 7.12502
rthumb -1.16088 -27.4382
lclavicle -3.0265e-014 -7.95139e-016
lhumerus -36.5897 -7.05494 83.8011
lradius 37.6979
lwrist 3.42331
lhand -18.8351 11.3898
lfingers 7.12502
lthumb 7.46433 41.2381
rfemur -4.88398 15.4882 26.0938
rtibia 26.6786
rfoot -27.9877 -28.6524
rtoes -16.915
lfemur -5.92502 -13.6657 -21.8397
ltibia 27.9621
lfoot -19.6838 22.144
ltoes -15.1467
373
root 10.3655 15.3475 8.77015 -2.73895 -183.202 -0.111303
lowerback 7.39316 1.36322 -0.255684
upperback 3.76154 2.08423 -1.22968
thorax -0.224071 1.17623 -1.27572
lowerneck -2.62616 6.17089 10.3447
upperneck -4.59772 7.68569 -9.02183
head -0.169275 3.68218 -4.27575
rclavicle -1.2921e-015 -1.59028e-015
rhumerus -37.9894 -12.191 -80.9452
rradius 28.4948
rwrist -15.924
rhand -27.7203 2.55197
rfingers 7.12502
rthumb -1.11581 -27.4249
lclavicle -1.2921e-015 -1.59028e-015
lhumerus -36.5747 -7.12287 83.7699
lradius 37.7135
lwrist 3.44478
lhand -18.9655 11.4968
lfingers 7.12502
lthumb 7.33843 41.3496
rfemur -4.90297 15.4858 26.3695
rtibia 26.6201
rfoot -27.7035 -28.8538
rtoes -17.978
lfemur -5.99202 -13.6759 -21.5647
ltibia 27.9979
lfoot -19.741 22.2227
ltoes -15.2177
374
root 10.3661 15.3489 8.76263 -2.66154 -183.285 0.0534595
lowerback 7.39514 1.38999 -0.0846125
upperback 3.71989 2.12427 -1.17667
thorax -0.263512 1.19492 -1.32091
lowerneck -2.6267 6.14299 10.2643
upperneck -4.48344 7.67846 -8.52699
head -0.178663 3.67533 -4.55933
rclavicle 2.90226e-014 -1.35174e-014
rhumerus -38.0798 -12.3133 -80.8513
rradius 28.53
rwrist -15.9455
rhand -27.5433 2.49659
rfingers 7.12502
rthumb -0.944812 -27.4811
lclavicle 2.90226e-014 -1.35174e-014
lhumerus -36.5651 -7.21908 83.845
lradius 37.6769
lwrist 3.63761
lhand -19.0422 11.6163
lfingers 7.12502
lthumb 7.26445 41.4716
rfemur -4.92543 15.4695 26.5365
rtibia 26.556
rfoot -27.51 -28.8573
rtoes -18.5275
lfemur -6.02106 -13.7633 -21.3915
ltibia 28.0286
lfoot -19.7418 22.4298
ltoes -15.2784
375
root 10.3663 15.3526 8.75581 -2.61376 -183.315 0.0410087
lowerback 7.43022 1.40327 -0.108431
upperback 3.69662 2.13755 -1.13825
thorax -0.308946 1.19958 -1.27074
lowerneck -2.79493 6.13679 10.1195
upperneck -4.31721 7.66762 -8.41418
head -0.106781 3.67095 -4.481
rclavicle -1.78906e-014 -5.56597e-015
rhumerus -38.1445 -12.4607 -80.6924
rradius 28.5254
rwrist -15.7779
rhand -27.4157 2.41621
rfingers 7.12502
rthumb -0.821539 -27.562
lclavicle -1.78906e-014 -5.56597e-015
lhumerus -36.5585 -7.28181 83.9407
lradius 37.6555
lwrist 3.78479
lhand -18.9428 11.8382
lfingers 7.12502
lthumb 7.36037 41.6902
rfemur -4.95189 15.3858 26.4735
rtibia 26.538
rfoot -27.7974 -28.454
rtoes -17.1131
lfemur -6.01047 -13.8901 -21.419
ltibia 28.0125
lfoot -19.8399 22.5089
ltoes -14.6208
